# File created by Blade
# Date/Time:  Wed Jan 21 16:14:13 2015
# Frame Rate: 120.000 fps
#------------------------------------------------------
:FULLY-SPECIFIED
:DEGREES
291
root 18.595857 35.513702 -20.477645 -174.418393 -0.102446 -178.243836
Spine -17.720593 0.584132 -0.043075
Head 9.339476 -0.450376 3.431218
LeftShoulder -8.769177 -30.287223 14.258742
LeftArm -4.770904 2.877634 -16.851463
LeftForeArm 1.746641 -0.000000 -4.050116
LeftHand -7.562550 -0.000000 -5.137049
LeftHandThumb1 -26.253704 0.000000 33.147579
RightShoulder -11.487954 -8.894901 -4.244949
RightArm 11.114948 29.629032 30.125585
RightForeArm -28.983652 -0.000000 2.317980
RightHand -2.324878 -0.000000 11.591290
RightHandThumb1 -24.326973 -0.000000 -32.862282
LeftUpLeg 2.872199 9.661962 1.127321
LeftLeg -5.205714 -0.000000 0.000000
LeftFoot -22.708324 26.374431 -13.101382
LeftToeBase 27.053223 -0.000000 -0.000000
RightUpLeg 0.810835 -5.397976 2.112054
RightLeg -1.534480 -0.000000 0.000000
RightFoot -22.239031 -27.272405 14.342914
RightToeBase 23.572152 -0.000000 -0.000000
292
root 18.592034 35.516957 -20.473437 -174.633410 -0.283052 -178.279000
Spine -17.617975 0.408202 -0.093610
Head 9.576581 -0.522360 3.453297
LeftShoulder -8.243689 -30.752499 14.297088
LeftArm -3.464911 3.303280 -16.229302
LeftForeArm 2.311770 -0.000000 -4.060523
LeftHand -7.462194 -0.000000 -5.036522
LeftHandThumb1 -26.253704 0.000000 33.147579
RightShoulder -11.010029 -8.330626 -4.547288
RightArm 11.763298 28.995280 29.155337
RightForeArm -29.066845 -0.000000 2.292511
RightHand -2.175176 -0.000000 11.555783
RightHandThumb1 -24.326973 -0.000000 -32.862282
LeftUpLeg 3.068655 9.537634 1.132604
LeftLeg -5.231256 -0.000000 0.000000
LeftFoot -22.625317 26.345620 -13.074130
LeftToeBase 27.074385 -0.000000 -0.000000
RightUpLeg 1.077078 -5.558328 2.063490
RightLeg -1.617418 -0.000000 0.000000
RightFoot -22.204847 -27.262157 14.438029
RightToeBase 23.424562 -0.000000 -0.000000
293
root 18.588543 35.521118 -20.456451 -174.742440 -0.334500 -178.299451
Spine -17.607685 0.368338 -0.153050
Head 9.775879 -0.646212 3.482485
LeftShoulder -7.724059 -31.357206 14.385352
LeftArm -2.255293 4.509349 -15.730811
LeftForeArm 2.313046 -0.000000 -3.945582
LeftHand -7.531871 -0.000000 -5.207265
LeftHandThumb1 -26.253704 0.000000 33.147579
RightShoulder -10.501239 -7.703199 -4.832506
RightArm 12.372054 28.470949 28.238442
RightForeArm -29.185339 -0.000000 2.282484
RightHand -1.905917 -0.000000 11.503016
RightHandThumb1 -24.326973 -0.000000 -32.862282
LeftUpLeg 3.151036 9.541760 1.125840
LeftLeg -5.252509 -0.000000 0.000000
LeftFoot -22.522970 26.310783 -13.042349
LeftToeBase 26.774610 -0.000000 -0.000000
RightUpLeg 1.176183 -5.621423 2.032539
RightLeg -1.643594 -0.000000 0.000000
RightFoot -22.175419 -27.269302 14.401081
RightToeBase 23.603950 -0.000000 -0.000000
294
root 18.587189 35.524257 -20.442682 -174.891187 -0.450855 -178.322685
Spine -17.576125 0.277410 -0.208100
Head 10.024330 -0.786888 3.480000
LeftShoulder -7.113387 -31.914444 14.376325
LeftArm -1.016454 5.107839 -15.201942
LeftForeArm 2.723585 -0.000000 -3.937911
LeftHand -7.481225 -0.000000 -5.339070
LeftHandThumb1 -26.253704 0.000000 33.147579
RightShoulder -9.925195 -7.020488 -5.130962
RightArm 12.863734 27.844260 27.343747
RightForeArm -29.385693 -0.000000 2.426619
RightHand -1.959896 -0.000000 11.531518
RightHandThumb1 -24.326973 -0.000000 -32.862282
LeftUpLeg 3.268793 9.462181 1.129524
LeftLeg -5.265033 -0.000000 0.000000
LeftFoot -22.439373 26.285571 -12.996242
LeftToeBase 26.989531 -0.000000 -0.000000
RightUpLeg 1.343746 -5.741880 2.003783
RightLeg -1.704876 -0.000000 0.000000
RightFoot -22.135144 -27.269561 14.402780
RightToeBase 23.627429 -0.000000 -0.000000
295
root 18.581864 35.527051 -20.433146 -175.109943 -0.511740 -178.336006
Spine -17.456296 0.226847 -0.224703
Head 10.232519 -0.862225 3.438511
LeftShoulder -6.468947 -32.688609 14.349489
LeftArm -0.005579 6.479830 -14.737358
LeftForeArm 2.649770 0.000000 -3.731060
LeftHand -7.532877 0.000000 -5.522599
LeftHandThumb1 -26.253704 0.000000 33.147579
RightShoulder -9.438724 -6.439679 -5.389316
RightArm 13.721429 27.325989 26.609882
RightForeArm -29.515107 -0.000000 2.348782
RightHand -2.000006 0.000000 11.363185
RightHandThumb1 -24.326973 -0.000000 -32.862282
LeftUpLeg 3.486015 9.465159 1.151080
LeftLeg -5.303373 -0.000000 0.000000
LeftFoot -22.334584 26.211007 -12.927456
LeftToeBase 27.004576 -0.000000 -0.000000
RightUpLeg 1.587524 -5.827573 1.963010
RightLeg -1.771908 -0.000000 0.000000
RightFoot -22.076175 -27.243153 14.401341
RightToeBase 23.599864 -0.000000 -0.000000
296
root 18.579067 35.531010 -20.410340 -175.210939 -0.551460 -178.346021
Spine -17.456947 0.164324 -0.240306
Head 10.443680 -0.871913 3.454873
LeftShoulder -5.892604 -33.402404 14.348559
LeftArm 1.099019 7.477831 -14.331130
LeftForeArm 2.789794 -0.000000 -3.596691
LeftHand -7.514078 0.000000 -5.739404
LeftHandThumb1 -26.253704 0.000000 33.147579
RightShoulder -8.744450 -5.752868 -5.717793
RightArm 14.124010 26.518904 25.792086
RightForeArm -29.557684 -0.000000 2.620888
RightHand -1.856603 -0.000000 11.366778
RightHandThumb1 -24.326973 -0.000000 -32.862282
LeftUpLeg 3.555234 9.443545 1.146930
LeftLeg -5.329984 -0.000000 0.000000
LeftFoot -22.268851 26.230319 -12.912764
LeftToeBase 26.981454 -0.000000 -0.000000
RightUpLeg 1.668665 -5.822814 1.945811
RightLeg -1.799624 -0.000000 0.000000
RightFoot -22.039772 -27.288632 14.442914
RightToeBase 23.580918 -0.000000 -0.000000
297
root 18.575210 35.534805 -20.379491 -175.262855 -0.532942 -178.364983
Spine -17.504301 0.196208 -0.279368
Head 10.594263 -1.001948 3.432476
LeftShoulder -5.252980 -34.124775 14.288894
LeftArm 2.223020 8.485141 -13.960371
LeftForeArm 2.900661 -0.000000 -3.512344
LeftHand -7.458554 -0.000000 -5.988420
LeftHandThumb1 -26.253704 0.000000 33.147579
RightShoulder -8.246355 -5.307970 -5.972076
RightArm 15.033349 26.013510 25.233238
RightForeArm -29.448326 -0.000000 2.664772
RightHand -1.938792 -0.000000 11.299237
RightHandThumb1 -24.326973 -0.000000 -32.862282
LeftUpLeg 3.559635 9.439462 1.116958
LeftLeg -5.332726 -0.000000 0.000000
LeftFoot -22.188908 26.276439 -12.883878
LeftToeBase 26.915458 -0.000000 -0.000000
RightUpLeg 1.667451 -5.733563 1.917962
RightLeg -1.792481 -0.000000 0.000000
RightFoot -22.013428 -27.350464 14.445156
RightToeBase 23.632103 -0.000000 -0.000000
298
root 18.572462 35.538757 -20.358172 -175.353845 -0.493309 -178.375689
Spine -17.524682 0.287211 -0.320480
Head 10.801476 -1.048857 3.402427
LeftShoulder -4.600038 -34.898648 14.233978
LeftArm 3.313515 9.469668 -13.695155
LeftForeArm 3.083107 0.000000 -3.315308
LeftHand -7.602622 -0.000000 -6.231451
LeftHandThumb1 -26.253704 0.000000 33.147579
RightShoulder -7.653476 -4.504889 -6.342286
RightArm 15.545351 25.316258 24.675946
RightForeArm -29.686438 -0.000000 2.851690
RightHand -1.916276 -0.000000 11.384771
RightHandThumb1 -24.326973 -0.000000 -32.862282
LeftUpLeg 3.636282 9.528208 1.108931
LeftLeg -5.364523 -0.000000 0.000000
LeftFoot -22.102031 26.247091 -12.849623
LeftToeBase 26.920230 -0.000000 -0.000000
RightUpLeg 1.725847 -5.678607 1.891385
RightLeg -1.798736 -0.000000 0.000000
RightFoot -21.964967 -27.346936 14.453608
RightToeBase 23.577026 -0.000000 -0.000000
299
root 18.570458 35.541267 -20.337534 -175.538057 -0.545856 -178.397231
Spine -17.414984 0.230435 -0.349685
Head 10.947788 -1.113231 3.360444
LeftShoulder -4.009181 -35.614396 14.203070
LeftArm 4.432444 10.418532 -13.489067
LeftForeArm 3.223130 -0.000000 -3.171723
LeftHand -7.627836 -0.000000 -6.424842
LeftHandThumb1 -26.253704 0.000000 33.147579
RightShoulder -7.024620 -3.935558 -6.650914
RightArm 16.303867 24.811413 24.254451
RightForeArm -29.727608 -0.000000 2.949205
RightHand -2.097663 -0.000000 11.178406
RightHandThumb1 -24.326973 -0.000000 -32.862282
LeftUpLeg 3.784396 9.498223 1.111492
LeftLeg -5.377261 -0.000000 0.000000
LeftFoot -22.024611 26.255796 -12.832274
LeftToeBase 26.628856 -0.000000 -0.000000
RightUpLeg 1.903778 -5.730170 1.851739
RightLeg -1.840800 -0.000000 0.000000
RightFoot -21.916280 -27.362877 14.426765
RightToeBase 23.563561 -0.000000 -0.000000
300
root 18.569225 35.544353 -20.315339 -175.640679 -0.592792 -178.421441
Spine -17.410581 0.220068 -0.389271
Head 11.074006 -1.179819 3.297008
LeftShoulder -3.394225 -36.350037 14.188255
LeftArm 5.485821 11.488041 -13.404953
LeftForeArm 3.200310 -0.000000 -2.938356
LeftHand -7.674823 -0.000000 -6.477991
LeftHandThumb1 -26.253704 0.000000 33.147579
RightShoulder -6.456326 -3.341273 -6.989555
RightArm 17.054042 24.229795 23.897869
RightForeArm -29.899962 -0.000000 3.049065
RightHand -1.917783 0.000000 11.159505
RightHandThumb1 -24.326973 -0.000000 -32.862282
LeftUpLeg 3.845360 9.440688 1.098243
LeftLeg -5.375093 -0.000000 0.000000
LeftFoot -21.952802 26.269444 -12.786059
LeftToeBase 26.841621 -0.000000 -0.000000
RightUpLeg 1.987996 -5.780068 1.820719
RightLeg -1.868506 -0.000000 0.000000
RightFoot -21.888947 -27.350536 14.454702
RightToeBase 23.604774 -0.000000 -0.000000
301
root 18.567507 35.547389 -20.289485 -175.732810 -0.492505 -178.446351
Spine -17.409416 0.324164 -0.431890
Head 11.225785 -1.194944 3.259445
LeftShoulder -2.857573 -37.045153 14.236604
LeftArm 6.572116 12.104758 -13.458664
LeftForeArm 3.384383 -0.000000 -2.781825
LeftHand -7.733314 -0.000000 -6.473116
LeftHandThumb1 -26.253704 0.000000 33.147579
RightShoulder -5.917160 -2.748367 -7.322746
RightArm 17.943865 23.574632 23.650827
RightForeArm -29.934193 -0.000000 3.138574
RightHand -1.866148 -0.000000 11.124853
RightHandThumb1 -24.326973 -0.000000 -32.862282
LeftUpLeg 3.924226 9.570541 1.073677
LeftLeg -5.407797 -0.000000 0.000000
LeftFoot -21.871184 26.242975 -12.761860
LeftToeBase 26.873098 -0.000000 -0.000000
RightUpLeg 2.018820 -5.645972 1.778851
RightLeg -1.844179 -0.000000 0.000000
RightFoot -21.851105 -27.361354 14.470840
RightToeBase 23.452165 -0.000000 -0.000000
302
root 18.564170 35.549397 -20.286443 -176.022774 -0.690624 -178.463059
Spine -17.210127 0.178484 -0.416755
Head 11.353511 -1.282398 3.090273
LeftShoulder -2.204692 -37.774862 14.105803
LeftArm 7.612388 12.668227 -13.495834
LeftForeArm 3.764234 -0.000000 -2.597274
LeftHand -7.740953 -0.000000 -6.488259
LeftHandThumb1 -26.253704 0.000000 33.147579
RightShoulder -5.405874 -2.269595 -7.711716
RightArm 18.860763 23.071535 23.539956
RightForeArm -30.391617 -0.000000 3.392007
RightHand -2.049375 -0.000000 11.305137
RightHandThumb1 -24.326973 -0.000000 -32.862282
LeftUpLeg 4.203474 9.373698 1.109782
LeftLeg -5.443464 -0.000000 0.000000
LeftFoot -21.790178 26.248720 -12.721489
LeftToeBase 26.832059 -0.000000 -0.000000
RightUpLeg 2.389169 -6.035734 1.733121
RightLeg -1.979060 -0.000000 0.000000
RightFoot -21.762399 -27.207151 14.405259
RightToeBase 23.594305 -0.000000 -0.000000
303
root 18.559766 35.552950 -20.261747 -176.107281 -0.742571 -178.485032
Spine -17.230509 0.172002 -0.425730
Head 11.507195 -1.268325 3.015249
LeftShoulder -1.622769 -38.380543 14.036370
LeftArm 8.703652 13.337079 -13.615330
LeftForeArm 3.837263 -0.000000 -2.372643
LeftHand -7.692832 -0.000000 -6.486104
LeftHandThumb1 -26.253704 0.000000 33.147579
RightShoulder -4.893809 -1.786460 -8.077984
RightArm 19.809556 22.344022 23.401461
RightForeArm -30.699785 0.000000 3.536592
RightHand -2.119689 -0.000000 11.440764
RightHandThumb1 -24.326973 -0.000000 -32.862282
LeftUpLeg 4.227070 9.337047 1.089757
LeftLeg -5.424475 -0.000000 0.000000
LeftFoot -21.711696 26.283188 -12.653849
LeftToeBase 26.590303 -0.000000 -0.000000
RightUpLeg 2.453619 -6.121436 1.699763
RightLeg -2.012166 -0.000000 0.000000
RightFoot -21.706551 -27.187947 14.378132
RightToeBase 23.642008 -0.000000 -0.000000
